<svg width="52" height="26" viewBox="0 0 52 26" fill="none" xmlns="http://www.w3.org/2000/svg">
<path d="M2.816 24.9841C2.28267 24.9841 1.80267 24.8561 1.376 24.6001C0.970667 24.3441 0.64 24.0027 0.384 23.5761C0.128 23.1494 0 22.6801 0 22.1681C0 21.6561 0.128 21.1867 0.384 20.7601C0.64 20.3334 0.970667 19.9921 1.376 19.7361C1.80267 19.4801 2.28267 19.3521 2.816 19.3521C3.34933 19.3521 3.81867 19.4801 4.224 19.7361C4.65067 19.9921 4.992 20.3334 5.248 20.7601C5.504 21.1867 5.632 21.6561 5.632 22.1681C5.632 22.6801 5.504 23.1494 5.248 23.5761C4.992 24.0027 4.65067 24.3441 4.224 24.6001C3.81867 24.8561 3.34933 24.9841 2.816 24.9841Z" fill="#5F3962"/>
<path d="M14.8348 25.3361C13.6614 25.3361 12.6481 25.1121 11.7948 24.6641C10.9628 24.1947 10.3121 23.5227 9.84275 22.6481C9.39475 21.7734 9.17075 20.7067 9.17075 19.4481V11.5761H6.29075V7.96006H9.17075V2.20006H13.6508V7.96006H18.2588V11.5761H13.6508V18.9041C13.6508 19.7147 13.8214 20.3441 14.1628 20.7921C14.5041 21.2187 15.0268 21.4321 15.7308 21.4321C16.0934 21.4321 16.4774 21.3787 16.8827 21.2721C17.3094 21.1654 17.7148 21.0267 18.0988 20.8561L18.8988 24.2161C18.3441 24.5574 17.7254 24.8241 17.0427 25.0161C16.3601 25.2294 15.6241 25.3361 14.8348 25.3361Z" fill="#5F3962"/>
<path d="M26.338 3.38406C26.338 3.87473 26.2207 4.31206 25.986 4.69606C25.7727 5.08006 25.4633 5.3894 25.058 5.62406C24.674 5.8374 24.2473 5.94406 23.778 5.94406C23.3087 5.94406 22.8713 5.8374 22.466 5.62406C22.082 5.3894 21.7727 5.08006 21.538 4.69606C21.3247 4.31206 21.218 3.87473 21.218 3.38406C21.218 2.8934 21.3247 2.45606 21.538 2.07206C21.7727 1.68806 22.082 1.3894 22.466 1.17606C22.8713 0.941396 23.3087 0.824062 23.778 0.824062C24.2473 0.824062 24.674 0.941396 25.058 1.17606C25.4633 1.3894 25.7727 1.68806 25.986 2.07206C26.2207 2.45606 26.338 2.8934 26.338 3.38406ZM21.538 24.8561V7.96006H26.018V24.8561H21.538Z" fill="#5F3962"/>
<path d="M31.2645 24.8561V11.4801H28.3845V7.96006H31.2645V7.00006C31.2645 6.08273 31.4138 5.24006 31.7125 4.47206C32.0325 3.68273 32.4698 3.01073 33.0245 2.45606C33.6005 1.88006 34.2725 1.44273 35.0405 1.14406C35.8298 0.824062 36.6832 0.664062 37.6005 0.664062C38.3045 0.664062 38.9338 0.749396 39.4885 0.920063C40.0645 1.09073 40.5552 1.28273 40.9605 1.49606L40.0645 4.92006C39.8085 4.79206 39.5098 4.6854 39.1685 4.60006C38.8485 4.4934 38.5392 4.44006 38.2405 4.44006C37.3872 4.44006 36.7578 4.69606 36.3525 5.20806C35.9472 5.69873 35.7445 6.39206 35.7445 7.28806V7.96006H42.2085V7.00006C42.2085 6.08273 42.3578 5.24006 42.6565 4.47206C42.9765 3.68273 43.4138 3.01073 43.9685 2.45606C44.5445 1.88006 45.2165 1.44273 45.9845 1.14406C46.7738 0.824062 47.6272 0.664062 48.5445 0.664062C49.2485 0.664062 49.8778 0.749396 50.4325 0.920063C51.0085 1.09073 51.4992 1.28273 51.9045 1.49606L51.0085 4.92006C50.7525 4.79206 50.4538 4.6854 50.1125 4.60006C49.7925 4.4934 49.4832 4.44006 49.1845 4.44006C48.3312 4.44006 47.7018 4.69606 47.2965 5.20806C46.8912 5.69873 46.6885 6.39206 46.6885 7.28806V7.96006H51.1685V11.4801H46.6885V24.8561H42.2085V11.4801H35.7445V24.8561H31.2645Z" fill="#5F3962"/>
</svg>
